<?xml version="1.0" encoding="utf-8"?>
<!-- Generator: Adobe Illustrator 16.0.0, SVG Export Plug-In . SVG Version: 6.00 Build 0)  -->
<!DOCTYPE svg PUBLIC "-//W3C//DTD SVG 1.1//EN" "http://www.w3.org/Graphics/SVG/1.1/DTD/svg11.dtd">
<svg version="1.1" id="Capa_1" xmlns="http://www.w3.org/2000/svg" xmlns:xlink="http://www.w3.org/1999/xlink" x="0px" y="0px"
	 width="270px" height="107px" viewBox="0 0 270 107" enable-background="new 0 0 270 107" xml:space="preserve">
<g>
	<path fill="#FFFFFF" d="M12.255,88.5v-54h28.584v7.92H22.335V56.1h17.352v7.92H22.335V88.5H12.255z"/>
	<path fill="#FFFFFF" d="M47.896,88.5v-54h10.08v46.08h18.72v7.92H47.896z"/>
	<path fill="#FFFFFF" d="M172.6,62.436c0.335,1.776,0.636,3.769,0.9,5.976c0.263,2.208,0.539,4.896,0.828,8.064
		c0.238,2.496,0.406,4.224,0.504,5.184h0.144c0.048-0.24,0.119-0.888,0.216-1.944c0.096-1.104,0.145-1.751,0.145-1.944
		c0.432-5.519,0.936-10.127,1.512-13.824l4.031-29.448h10.44l-10.008,54h-12.097l-4.031-21.312c-0.48-2.543-0.984-6.383-1.512-11.52
		c-0.289-2.832-0.504-4.727-0.648-5.688h-0.145c-0.144,0.961-0.359,2.856-0.647,5.688c-0.528,5.137-1.032,8.977-1.512,11.52
		L157.119,88.5h-12.096l-10.296-54h10.44l4.536,29.448c0.576,3.696,1.08,8.305,1.512,13.824c0.096,0.864,0.191,2.16,0.288,3.888
		h0.144c0.191-1.536,0.407-3.624,0.647-6.264c0.624-6.144,1.176-10.463,1.656-12.96l4.896-27.936h8.352L172.6,62.436z"/>
	<path fill="#FFFFFF" d="M197.583,88.5v-54h28.368v7.92h-18.288v13.608h16.849v7.92h-16.849V80.58h18.288v7.92H197.583z"/>
	<path fill="#FFFFFF" d="M233.655,88.5v-54h16.272c2.688,0,4.943,0.252,6.768,0.756s3.383,1.573,4.68,3.204
		c1.055,1.344,1.764,2.772,2.125,4.284c0.359,1.512,0.539,3.324,0.539,5.436c0,2.736-0.457,5.076-1.367,7.02
		c-0.914,1.944-2.617,3.373-5.113,4.284v0.144c2.736,0.385,4.729,1.656,5.977,3.816c1.248,2.16,1.871,5.065,1.871,8.712
		c0,2.592-0.24,4.801-0.719,6.624c-1.057,3.409-2.629,5.88-4.717,7.416c-2.088,1.537-4.932,2.304-8.531,2.304H233.655z
		 M245.607,56.316c1.967,0,3.502-0.108,4.607-0.324c1.104-0.216,1.969-0.731,2.592-1.548c0.721-1.055,1.08-2.999,1.08-5.832
		c0-2.16-0.371-3.719-1.115-4.68c-0.746-0.96-2.197-1.464-4.355-1.512h-4.682v13.896H245.607z M245.895,80.58
		c1.873,0,3.205-0.036,3.996-0.108c0.793-0.072,1.477-0.228,2.053-0.468c1.248-0.527,2.076-1.463,2.484-2.808
		c0.406-1.343,0.611-2.903,0.611-4.68c0-3.071-0.492-5.22-1.477-6.444c-0.984-1.224-2.963-1.836-5.939-1.836h-3.889V80.58H245.895z"
		/>
</g>
<g>
	<path fill="#662D91" d="M98.84,97.007c3.16,0.003,5.727-8.157,5.728-11.317l0.008-12.652l28.795-38.757
		c0.685-0.684,0.787-1.757,0.244-2.558c-0.544-0.8-1.579-1.101-2.467-0.717l-26.557,21.492l0.016-23.337l11.043-11.029
		c0.236-0.237,0.272-0.609,0.084-0.887c-0.189-0.278-0.548-0.382-0.855-0.249l-12.961,5.607c-0.287-0.18-0.589-0.333-0.909-0.46
		v-0.813c0.001-1.157-0.936-2.095-2.094-2.096c-1.157-0.001-2.096,0.937-2.097,2.094l0,0.793c-0.324,0.125-0.634,0.278-0.926,0.458
		l-12.75-5.604c-0.308-0.135-0.667-0.031-0.857,0.245c-0.083,0.118-0.122,0.257-0.122,0.394c-0.001,0.18,0.068,0.358,0.205,0.494
		l10.796,10.811l-0.016,23.708l-26.534-21.66c-0.887-0.389-1.926-0.092-2.473,0.707c-0.236,0.346-0.352,0.742-0.354,1.135
		c0.001,0.521,0.201,1.037,0.59,1.428L93.134,73.03l-0.008,12.652C93.125,88.842,95.681,97.005,98.84,97.007z"/>
</g>
</svg>
