<svg id="visual" viewBox="0 0 1920 540" width="1920" height="540" xmlns="http://www.w3.org/2000/svg" xmlns:xlink="http://www.w3.org/1999/xlink" version="1.1"><path d="M0 340L45.7 334.2C91.3 328.3 182.7 316.7 274.2 316.7C365.7 316.7 457.3 328.3 548.8 335.3C640.3 342.3 731.7 344.7 823 339.8C914.3 335 1005.7 323 1097 320.8C1188.3 318.7 1279.7 326.3 1371.2 325.3C1462.7 324.3 1554.3 314.7 1645.8 315.3C1737.3 316 1828.7 327 1874.3 332.5L1920 338L1920 541L1874.3 541C1828.7 541 1737.3 541 1645.8 541C1554.3 541 1462.7 541 1371.2 541C1279.7 541 1188.3 541 1097 541C1005.7 541 914.3 541 823 541C731.7 541 640.3 541 548.8 541C457.3 541 365.7 541 274.2 541C182.7 541 91.3 541 45.7 541L0 541Z" fill="#8403fc"></path><path d="M0 386L45.7 388.5C91.3 391 182.7 396 274.2 398.2C365.7 400.3 457.3 399.7 548.8 394.5C640.3 389.3 731.7 379.7 823 372.8C914.3 366 1005.7 362 1097 367.7C1188.3 373.3 1279.7 388.7 1371.2 390.2C1462.7 391.7 1554.3 379.3 1645.8 375.5C1737.3 371.7 1828.7 376.3 1874.3 378.7L1920 381L1920 541L1874.3 541C1828.7 541 1737.3 541 1645.8 541C1554.3 541 1462.7 541 1371.2 541C1279.7 541 1188.3 541 1097 541C1005.7 541 914.3 541 823 541C731.7 541 640.3 541 548.8 541C457.3 541 365.7 541 274.2 541C182.7 541 91.3 541 45.7 541L0 541Z" fill="#7e1edf"></path><path d="M0 414L45.7 416.3C91.3 418.7 182.7 423.3 274.2 422.7C365.7 422 457.3 416 548.8 420C640.3 424 731.7 438 823 444.8C914.3 451.7 1005.7 451.3 1097 446.2C1188.3 441 1279.7 431 1371.2 426.2C1462.7 421.3 1554.3 421.7 1645.8 421.2C1737.3 420.7 1828.7 419.3 1874.3 418.7L1920 418L1920 541L1874.3 541C1828.7 541 1737.3 541 1645.8 541C1554.3 541 1462.7 541 1371.2 541C1279.7 541 1188.3 541 1097 541C1005.7 541 914.3 541 823 541C731.7 541 640.3 541 548.8 541C457.3 541 365.7 541 274.2 541C182.7 541 91.3 541 45.7 541L0 541Z" fill="#772ac3"></path><path d="M0 476L45.7 478.2C91.3 480.3 182.7 484.7 274.2 482.2C365.7 479.7 457.3 470.3 548.8 470.5C640.3 470.7 731.7 480.3 823 484C914.3 487.7 1005.7 485.3 1097 480.5C1188.3 475.7 1279.7 468.3 1371.2 473C1462.7 477.7 1554.3 494.3 1645.8 500C1737.3 505.7 1828.7 500.3 1874.3 497.7L1920 495L1920 541L1874.3 541C1828.7 541 1737.3 541 1645.8 541C1554.3 541 1462.7 541 1371.2 541C1279.7 541 1188.3 541 1097 541C1005.7 541 914.3 541 823 541C731.7 541 640.3 541 548.8 541C457.3 541 365.7 541 274.2 541C182.7 541 91.3 541 45.7 541L0 541Z" fill="#6f32a8"></path></svg>